<svg width="400" height="300" xmlns="http://www.w3.org/2000/svg">
  <!-- Çim -->
  <rect width="400" height="300" fill="#228B22"/>
  
  <!-- Saha çizgileri -->
  <rect x="50" y="50" width="300" height="200" fill="none" stroke="white" stroke-width="3"/>
  
  <!-- Orta çizgi -->
  <line x1="200" y1="50" x2="200" y2="250" stroke="white" stroke-width="2"/>
  
  <!-- Orta daire -->
  <circle cx="200" cy="150" r="30" fill="none" stroke="white" stroke-width="2"/>
  <circle cx="200" cy="150" r="2" fill="white"/>
  
  <!-- Sol kale alanı -->
  <rect x="50" y="110" width="40" height="80" fill="none" stroke="white" stroke-width="2"/>
  <rect x="50" y="130" width="15" height="40" fill="none" stroke="white" stroke-width="2"/>
  
  <!-- Sağ kale alanı -->
  <rect x="310" y="110" width="40" height="80" fill="none" stroke="white" stroke-width="2"/>
  <rect x="335" y="130" width="15" height="40" fill="none" stroke="white" stroke-width="2"/>
  
  <!-- Köşe daireleri -->
  <path d="M50 50 A10 10 0 0 1 60 60" fill="none" stroke="white" stroke-width="2"/>
  <path d="M350 50 A10 10 0 0 0 340 60" fill="none" stroke="white" stroke-width="2"/>
  <path d="M50 250 A10 10 0 0 0 60 240" fill="none" stroke="white" stroke-width="2"/>
  <path d="M350 250 A10 10 0 0 1 340 240" fill="none" stroke="white" stroke-width="2"/>
  
  <!-- Penaltı noktaları -->
  <circle cx="75" cy="150" r="2" fill="white"/>
  <circle cx="325" cy="150" r="2" fill="white"/>
  
  <!-- Yazı -->
  <text x="200" y="280" font-family="Arial, sans-serif" font-size="14" font-weight="bold" text-anchor="middle" fill="white">FUTBOL SAHASI</text>
</svg> 